<?xml version="1.0" encoding="UTF-8"?>
<!-- HairFront grid — FaceParallax placeholder art library.
     Generated by generate_art.py (smooth_art engine) from
     FPSchematicAuthoredPoseTable() in FaceParallaxSchematic.h.
     One <g id="<cell key>"> per cell (right + mirrored left +
     Top + UnderPlane + extras). Vector line art on the Part I
     geometry canvas [0,1]^2 scaled to 1000x1000
     (Y down). Curves follow art_guide.md I.1/I.6/I.7.
     Feature 1: per-cell <mask> ids namespace the eye silhouette
     (white-on-black containment) so the iris / highlights mask
     to the eye outline inside every cell. -->
<svg xmlns="http://www.w3.org/2000/svg" viewBox="0 0 1000 1000">
    <g id="HairFront_Front_Y00_P00">
      <path d="M 210.000 260.000 C 200.000 78.333 198.333 59.000 230.000 35.000 C 261.667 11.000 246.667 33.000 280.000 28.000 C 313.333 23.000 300.000 -4.000 330.000 20.000 C 360.000 44.000 346.667 97.333 370.000 100.000 C 393.333 102.667 373.333 54.667 400.000 28.000 C 426.667 1.333 431.667 26.333 450.000 20.000 C 468.333 13.667 448.333 14.000 455.000 9.000 C 461.667 4.000 460.333 5.000 470.000 5.000 C 479.667 5.000 474.000 4.000 484.000 9.000 C 494.000 14.000 478.000 16.333 500.000 20.000 C 522.000 23.667 516.667 17.333 550.000 20.000 C 583.333 22.667 573.333 1.333 600.000 28.000 C 626.667 54.667 606.667 102.667 630.000 100.000 C 653.333 97.333 640.000 44.000 670.000 20.000 C 700.000 -4.000 686.667 23.000 720.000 28.000 C 753.333 33.000 738.333 11.000 770.000 35.000 C 801.667 59.000 808.333 25.000 815.000 100.000 C 821.667 175.000 821.667 205.000 790.000 260.000 C 758.333 277.600 766.667 267.667 720.000 265.000 C 673.333 262.333 696.667 253.000 650.000 252.000 C 603.333 251.000 630.000 260.000 580.000 262.000 C 530.000 264.000 553.333 258.000 500.000 258.000 C 446.667 258.000 470.000 264.000 420.000 262.000 C 370.000 260.000 396.667 251.000 350.000 252.000 C 303.333 253.000 326.667 262.333 280.000 265.000 Z" fill="none" stroke="#16181d" stroke-width="5.0" stroke-linecap="round" stroke-linejoin="round"/>
      <path d="M 244.396 242.316 C 235.596 82.449 234.129 65.436 261.996 44.316 C 289.862 23.196 276.662 42.556 305.996 38.156 C 335.329 33.756 323.596 9.996 349.996 31.116 C 376.396 52.236 364.662 99.169 385.196 101.516 C 405.729 103.862 388.129 61.622 411.596 38.156 C 435.062 14.689 439.462 36.689 455.596 31.116 C 471.729 25.542 454.129 25.836 459.996 21.436 C 465.862 17.036 464.689 17.916 473.196 17.916 C 481.702 17.916 476.716 17.036 485.516 21.436 C 494.316 25.836 480.236 27.889 499.596 31.116 C 518.956 34.342 514.262 28.769 543.596 31.116 C 572.929 33.462 564.129 14.689 587.596 38.156 C 611.062 61.622 593.462 103.862 613.996 101.516 C 634.529 99.169 622.796 52.236 649.196 31.116 C 675.596 9.996 663.862 33.756 693.196 38.156 C 722.529 42.556 709.329 23.196 737.196 44.316 C 765.062 65.436 770.929 35.516 776.796 101.516 C 782.662 167.516 782.662 193.916 754.796 242.316 C 726.929 257.804 734.262 249.062 693.196 246.716 C 652.129 244.369 672.662 236.156 631.596 235.276 C 590.529 234.396 613.996 242.316 569.996 244.076 C 525.996 245.836 546.529 240.556 499.596 240.556 C 452.662 240.556 473.196 245.836 429.196 244.076 C 385.196 242.316 408.662 234.396 367.596 235.276 C 326.529 236.156 347.062 244.369 305.996 246.716" fill="none" stroke="#16181d" stroke-width="3.0" stroke-linecap="round" stroke-linejoin="round"/>
      <path d="M 494.944 5.000 C 634.124 5.000 746.944 38.846 746.944 80.600 C 746.944 122.354 634.124 156.200 494.944 156.200 C 355.765 156.200 242.944 122.354 242.944 80.600 C 242.944 38.846 355.765 5.000 494.944 5.000 Z" fill="#d0d4da" stroke="none" stroke-width="0.0" opacity="0.3"/>
    </g>
    <g id="HairFront_Front_Y00_P45">
      <path d="M 210.000 264.631 C 200.000 92.048 198.333 73.681 230.000 50.881 C 261.667 28.081 246.667 48.981 280.000 44.231 C 313.333 39.481 300.000 13.831 330.000 36.631 C 360.000 59.431 346.667 110.098 370.000 112.631 C 393.333 115.165 373.333 69.565 400.000 44.231 C 426.667 18.898 431.667 42.648 450.000 36.631 C 468.333 30.615 448.333 30.931 455.000 26.181 C 461.667 21.431 460.333 22.381 470.000 22.381 C 479.667 22.381 474.000 21.431 484.000 26.181 C 494.000 30.931 478.000 33.148 500.000 36.631 C 522.000 40.115 516.667 34.098 550.000 36.631 C 583.333 39.165 573.333 18.898 600.000 44.231 C 626.667 69.565 606.667 115.165 630.000 112.631 C 653.333 110.098 640.000 59.431 670.000 36.631 C 700.000 13.831 686.667 39.481 720.000 44.231 C 753.333 48.981 738.333 28.081 770.000 50.881 C 801.667 73.681 808.333 41.381 815.000 112.631 C 821.667 183.881 821.667 212.381 790.000 264.631 C 758.333 281.981 766.667 271.915 720.000 269.381 C 673.333 266.848 696.667 257.981 650.000 257.031 C 603.333 256.081 630.000 264.631 580.000 266.531 C 530.000 268.431 553.333 262.731 500.000 262.731 C 446.667 262.731 470.000 268.431 420.000 266.531 C 370.000 264.631 396.667 256.081 350.000 257.031 C 303.333 257.981 326.667 266.848 280.000 269.381 Z" fill="none" stroke="#16181d" stroke-width="5.0" stroke-linecap="round" stroke-linejoin="round"/>
      <path d="M 244.396 247.831 C 235.596 95.958 234.129 79.795 261.996 59.731 C 289.862 39.667 276.662 58.059 305.996 53.879 C 335.329 49.699 323.596 27.127 349.996 47.191 C 376.396 67.255 364.662 111.842 385.196 114.071 C 405.729 116.301 388.129 76.173 411.596 53.879 C 435.062 31.586 439.462 52.486 455.596 47.191 C 471.729 41.897 454.129 42.175 459.996 37.995 C 465.862 33.815 464.689 34.651 473.196 34.651 C 481.702 34.651 476.716 33.815 485.516 37.995 C 494.316 42.175 480.236 44.126 499.596 47.191 C 518.956 50.257 514.262 44.962 543.596 47.191 C 572.929 49.421 564.129 31.586 587.596 53.879 C 611.062 76.173 593.462 116.301 613.996 114.071 C 634.529 111.842 622.796 67.255 649.196 47.191 C 675.596 27.127 663.862 49.699 693.196 53.879 C 722.529 58.059 709.329 39.667 737.196 59.731 C 765.062 79.795 770.929 51.371 776.796 114.071 C 782.662 176.771 782.662 201.851 754.796 247.831 C 726.929 263.099 734.262 254.241 693.196 252.011 C 652.129 249.782 672.662 241.979 631.596 241.143 C 590.529 240.307 613.996 247.831 569.996 249.503 C 525.996 251.175 546.529 246.159 499.596 246.159 C 452.662 246.159 473.196 251.175 429.196 249.503 C 385.196 247.831 408.662 240.307 367.596 241.143 C 326.529 241.979 347.062 249.782 305.996 252.011" fill="none" stroke="#16181d" stroke-width="3.0" stroke-linecap="round" stroke-linejoin="round"/>
      <path d="M 494.944 22.381 C 634.124 22.381 746.944 56.228 746.944 97.981 C 746.944 139.735 634.124 173.581 494.944 173.581 C 355.765 173.581 242.944 139.735 242.944 97.981 C 242.944 56.228 355.765 22.381 494.944 22.381 Z" fill="#d0d4da" stroke="none" stroke-width="0.0" opacity="0.3"/>
    </g>
    <g id="HairFront_Front_Y00_Pn45">
      <path d="M 210.000 242.250 C 200.000 69.667 198.333 51.300 230.000 28.500 C 261.667 5.700 246.667 26.600 280.000 21.850 C 313.333 17.100 300.000 -8.550 330.000 14.250 C 360.000 37.050 346.667 87.717 370.000 90.250 C 393.333 92.783 373.333 47.183 400.000 21.850 C 426.667 -3.483 431.667 20.267 450.000 14.250 C 468.333 8.233 448.333 8.550 455.000 3.800 C 461.667 -0.950 460.333 0.000 470.000 0.000 C 479.667 0.000 474.000 -0.950 484.000 3.800 C 494.000 8.550 478.000 10.767 500.000 14.250 C 522.000 17.733 516.667 11.717 550.000 14.250 C 583.333 16.783 573.333 -3.483 600.000 21.850 C 626.667 47.183 606.667 92.783 630.000 90.250 C 653.333 87.717 640.000 37.050 670.000 14.250 C 700.000 -8.550 686.667 17.100 720.000 21.850 C 753.333 26.600 738.333 5.700 770.000 28.500 C 801.667 51.300 808.333 19.000 815.000 90.250 C 821.667 161.500 821.667 190.000 790.000 242.250 C 758.333 259.600 766.667 249.533 720.000 247.000 C 673.333 244.467 696.667 235.600 650.000 234.650 C 603.333 233.700 630.000 242.250 580.000 244.150 C 530.000 246.050 553.333 240.350 500.000 240.350 C 446.667 240.350 470.000 246.050 420.000 244.150 C 370.000 242.250 396.667 233.700 350.000 234.650 C 303.333 235.600 326.667 244.467 280.000 247.000 Z" fill="none" stroke="#16181d" stroke-width="5.0" stroke-linecap="round" stroke-linejoin="round"/>
      <path d="M 244.396 225.450 C 235.596 73.576 234.129 57.414 261.996 37.350 C 289.862 17.286 276.662 35.678 305.996 31.498 C 335.329 27.318 323.596 4.746 349.996 24.810 C 376.396 44.874 364.662 89.460 385.196 91.690 C 405.729 93.919 388.129 53.791 411.596 31.498 C 435.062 9.204 439.462 30.104 455.596 24.810 C 471.729 19.515 454.129 19.794 459.996 15.614 C 465.862 11.434 464.689 12.270 473.196 12.270 C 481.702 12.270 476.716 11.434 485.516 15.614 C 494.316 19.794 480.236 21.744 499.596 24.810 C 518.956 27.875 514.262 22.580 543.596 24.810 C 572.929 27.039 564.129 9.204 587.596 31.498 C 611.062 53.791 593.462 93.919 613.996 91.690 C 634.529 89.460 622.796 44.874 649.196 24.810 C 675.596 4.746 663.862 27.318 693.196 31.498 C 722.529 35.678 709.329 17.286 737.196 37.350 C 765.062 57.414 770.929 28.990 776.796 91.690 C 782.662 154.390 782.662 179.470 754.796 225.450 C 726.929 240.718 734.262 231.859 693.196 229.630 C 652.129 227.400 672.662 219.598 631.596 218.762 C 590.529 217.926 613.996 225.450 569.996 227.122 C 525.996 228.794 546.529 223.778 499.596 223.778 C 452.662 223.778 473.196 228.794 429.196 227.122 C 385.196 225.450 408.662 217.926 367.596 218.762 C 326.529 219.598 347.062 227.400 305.996 229.630" fill="none" stroke="#16181d" stroke-width="3.0" stroke-linecap="round" stroke-linejoin="round"/>
      <path d="M 494.944 0.000 C 634.124 0.000 746.944 33.846 746.944 75.600 C 746.944 117.354 634.124 151.200 494.944 151.200 C 355.765 151.200 242.944 117.354 242.944 75.600 C 242.944 33.846 355.765 0.000 494.944 0.000 Z" fill="#d0d4da" stroke="none" stroke-width="0.0" opacity="0.3"/>
    </g>
    <g id="HairFront_3Q_Y45_P00">
      <path d="M 300.000 260.000 C 290.000 116.667 286.667 103.333 310.000 70.000 C 333.333 36.667 320.000 53.333 350.000 40.000 C 380.000 26.667 366.667 30.000 400.000 30.000 C 433.333 30.000 420.000 38.333 450.000 40.000 C 480.000 41.667 460.000 36.667 490.000 35.000 C 520.000 33.333 522.000 40.333 540.000 35.000 C 558.000 29.667 538.667 25.667 544.000 19.000 C 549.333 12.333 548.267 15.000 556.000 15.000 C 563.733 15.000 559.200 10.667 567.200 19.000 C 575.200 27.333 559.067 29.667 580.000 40.000 C 600.933 50.333 600.000 40.000 630.000 50.000 C 660.000 60.000 646.667 50.000 670.000 70.000 C 693.333 90.000 680.000 80.000 700.000 110.000 C 720.000 140.000 713.333 126.667 730.000 160.000 C 746.667 193.333 740.000 176.667 750.000 210.000 C 760.000 243.333 753.333 226.667 760.000 260.000 L 770.000 310.000 C 700.000 263.333 700.000 260.000 660.000 250.000 C 620.000 240.000 640.000 240.000 600.000 240.000 C 560.000 240.000 580.000 243.333 540.000 250.000 C 500.000 256.667 523.333 263.333 480.000 260.000 C 436.667 256.667 453.333 250.000 410.000 240.000 C 366.667 230.000 383.333 226.667 350.000 230.000 C 316.667 233.333 326.667 240.000 310.000 250.000 Z" fill="none" stroke="#16181d" stroke-width="5.0" stroke-linecap="round" stroke-linejoin="round"/>
      <path d="M 328.210 246.147 C 319.410 120.013 316.476 108.280 337.010 78.947 C 357.543 49.613 345.810 64.280 372.210 52.547 C 398.610 40.813 386.876 43.747 416.210 43.747 C 445.543 43.747 433.810 51.080 460.210 52.547 C 486.610 54.013 469.010 49.613 495.410 48.147 C 521.810 46.680 523.570 52.840 539.410 48.147 C 555.250 43.453 538.236 39.933 542.930 34.067 C 547.623 28.200 546.684 30.547 553.490 30.547 C 560.295 30.547 556.306 26.733 563.346 34.067 C 570.386 41.400 556.188 43.453 574.610 52.547 C 593.031 61.640 592.210 52.547 618.610 61.347 C 645.010 70.147 633.276 61.347 653.810 78.947 C 674.343 96.547 662.610 87.747 680.210 114.147 C 697.810 140.547 691.943 128.813 706.610 158.147 C 721.276 187.480 715.410 172.813 724.210 202.147 C 733.010 231.480 727.143 216.813 733.010 246.147 C 738.876 275.480 750.434 287.213 741.810 290.147 C 730.076 293.080 730.076 272.547 697.810 254.947 C 665.543 237.347 680.210 246.147 645.010 237.347 C 609.810 228.547 627.410 228.547 592.210 228.547 C 557.010 228.547 574.610 231.480 539.410 237.347 C 504.210 243.213 524.743 249.080 486.610 246.147 C 448.476 243.213 463.143 237.347 425.010 228.547 C 386.876 219.747 401.543 216.813 372.210 219.747 C 342.876 222.680 351.676 228.547 337.010 237.347" fill="none" stroke="#16181d" stroke-width="3.0" stroke-linecap="round" stroke-linejoin="round"/>
      <path d="M 504.800 15.000 C 597.586 15.000 672.800 37.564 672.800 65.400 C 672.800 93.236 597.586 115.800 504.800 115.800 C 412.014 115.800 336.800 93.236 336.800 65.400 C 336.800 37.564 412.014 15.000 504.800 15.000 Z" fill="#d0d4da" stroke="none" stroke-width="0.0" opacity="0.3"/>
    </g>
    <g id="HairFront_3Q_L_Y45_P00">
      <path d="M 700.000 260.000 C 710.000 116.667 713.333 103.333 690.000 70.000 C 666.667 36.667 680.000 53.333 650.000 40.000 C 620.000 26.667 633.333 30.000 600.000 30.000 C 566.667 30.000 580.000 38.333 550.000 40.000 C 520.000 41.667 540.000 36.667 510.000 35.000 C 480.000 33.333 478.000 40.333 460.000 35.000 C 442.000 29.667 461.333 25.667 456.000 19.000 C 450.667 12.333 451.733 15.000 444.000 15.000 C 436.267 15.000 440.800 10.667 432.800 19.000 C 424.800 27.333 440.933 29.667 420.000 40.000 C 399.067 50.333 400.000 40.000 370.000 50.000 C 340.000 60.000 353.333 50.000 330.000 70.000 C 306.667 90.000 320.000 80.000 300.000 110.000 C 280.000 140.000 286.667 126.667 270.000 160.000 C 253.333 193.333 260.000 176.667 250.000 210.000 C 240.000 243.333 246.667 226.667 240.000 260.000 L 230.000 310.000 C 300.000 263.333 300.000 260.000 340.000 250.000 C 380.000 240.000 360.000 240.000 400.000 240.000 C 440.000 240.000 420.000 243.333 460.000 250.000 C 500.000 256.667 476.667 263.333 520.000 260.000 C 563.333 256.667 546.667 250.000 590.000 240.000 C 633.333 230.000 616.667 226.667 650.000 230.000 C 683.333 233.333 673.333 240.000 690.000 250.000 Z" fill="none" stroke="#16181d" stroke-width="5.0" stroke-linecap="round" stroke-linejoin="round"/>
      <path d="M 671.790 246.147 C 680.590 120.013 683.524 108.280 662.990 78.947 C 642.457 49.613 654.190 64.280 627.790 52.547 C 601.390 40.813 613.124 43.747 583.790 43.747 C 554.457 43.747 566.190 51.080 539.790 52.547 C 513.390 54.013 530.990 49.613 504.590 48.147 C 478.190 46.680 476.430 52.840 460.590 48.147 C 444.750 43.453 461.764 39.933 457.070 34.067 C 452.377 28.200 453.316 30.547 446.510 30.547 C 439.705 30.547 443.694 26.733 436.654 34.067 C 429.614 41.400 443.812 43.453 425.390 52.547 C 406.969 61.640 407.790 52.547 381.390 61.347 C 354.990 70.147 366.724 61.347 346.190 78.947 C 325.657 96.547 337.390 87.747 319.790 114.147 C 302.190 140.547 308.057 128.813 293.390 158.147 C 278.724 187.480 284.590 172.813 275.790 202.147 C 266.990 231.480 272.857 216.813 266.990 246.147 C 261.124 275.480 249.566 287.213 258.190 290.147 C 269.924 293.080 269.924 272.547 302.190 254.947 C 334.457 237.347 319.790 246.147 354.990 237.347 C 390.190 228.547 372.590 228.547 407.790 228.547 C 442.990 228.547 425.390 231.480 460.590 237.347 C 495.790 243.213 475.257 249.080 513.390 246.147 C 551.524 243.213 536.857 237.347 574.990 228.547 C 613.124 219.747 598.457 216.813 627.790 219.747 C 657.124 222.680 648.324 228.547 662.990 237.347" fill="none" stroke="#16181d" stroke-width="3.0" stroke-linecap="round" stroke-linejoin="round"/>
      <path d="M 495.200 15.000 C 587.986 15.000 663.200 37.564 663.200 65.400 C 663.200 93.236 587.986 115.800 495.200 115.800 C 402.414 115.800 327.200 93.236 327.200 65.400 C 327.200 37.564 402.414 15.000 495.200 15.000 Z" fill="#d0d4da" stroke="none" stroke-width="0.0" opacity="0.3"/>
    </g>
    <g id="HairFront_3Q_Y45_P45">
      <path d="M 300.000 266.228 C 290.000 130.061 286.667 117.394 310.000 85.728 C 333.333 54.061 320.000 69.894 350.000 57.228 C 380.000 44.561 366.667 47.728 400.000 47.728 C 433.333 47.728 420.000 55.644 450.000 57.228 C 480.000 58.811 460.000 54.061 490.000 52.478 C 520.000 50.894 522.000 57.544 540.000 52.478 C 558.000 47.411 538.667 43.611 544.000 37.278 C 549.333 30.944 548.267 33.478 556.000 33.478 C 563.733 33.478 559.200 29.361 567.200 37.278 C 575.200 45.194 559.067 47.411 580.000 57.228 C 600.933 67.044 600.000 57.228 630.000 66.728 C 660.000 76.228 646.667 66.728 670.000 85.728 C 693.333 104.728 680.000 95.228 700.000 123.728 C 720.000 152.228 713.333 139.561 730.000 171.228 C 746.667 202.894 740.000 187.061 750.000 218.728 C 760.000 250.394 753.333 234.561 760.000 266.228 L 770.000 313.728 C 700.000 269.394 700.000 266.228 660.000 256.728 C 620.000 247.228 640.000 247.228 600.000 247.228 C 560.000 247.228 580.000 250.394 540.000 256.728 C 500.000 263.061 523.333 269.394 480.000 266.228 C 436.667 263.061 453.333 256.728 410.000 247.228 C 366.667 237.728 383.333 234.561 350.000 237.728 C 316.667 240.894 326.667 247.228 310.000 256.728 Z" fill="none" stroke="#16181d" stroke-width="5.0" stroke-linecap="round" stroke-linejoin="round"/>
      <path d="M 328.210 253.067 C 319.410 133.240 316.476 122.094 337.010 94.227 C 357.543 66.360 345.810 80.294 372.210 69.147 C 398.610 58.000 386.876 60.787 416.210 60.787 C 445.543 60.787 433.810 67.754 460.210 69.147 C 486.610 70.540 469.010 66.360 495.410 64.967 C 521.810 63.574 523.570 69.426 539.410 64.967 C 555.250 60.508 538.236 57.164 542.930 51.591 C 547.623 46.018 546.684 48.247 553.490 48.247 C 560.295 48.247 556.306 44.624 563.346 51.591 C 570.386 58.558 556.188 60.508 574.610 69.147 C 593.031 77.786 592.210 69.147 618.610 77.507 C 645.010 85.867 633.276 77.507 653.810 94.227 C 674.343 110.947 662.610 102.587 680.210 127.667 C 697.810 152.747 691.943 141.600 706.610 169.467 C 721.276 197.334 715.410 183.400 724.210 211.267 C 733.010 239.134 727.143 225.200 733.010 253.067 C 738.876 280.934 750.434 292.080 741.810 294.867 C 730.076 297.654 730.076 278.147 697.810 261.427 C 665.543 244.707 680.210 253.067 645.010 244.707 C 609.810 236.347 627.410 236.347 592.210 236.347 C 557.010 236.347 574.610 239.134 539.410 244.707 C 504.210 250.280 524.743 255.854 486.610 253.067 C 448.476 250.280 463.143 244.707 425.010 236.347 C 386.876 227.987 401.543 225.200 372.210 227.987 C 342.876 230.774 351.676 236.347 337.010 244.707" fill="none" stroke="#16181d" stroke-width="3.0" stroke-linecap="round" stroke-linejoin="round"/>
      <path d="M 522.092 33.478 C 608.251 33.478 678.092 54.430 678.092 80.278 C 678.092 106.125 608.251 127.078 522.092 127.078 C 435.934 127.078 366.092 106.125 366.092 80.278 C 366.092 54.430 435.934 33.478 522.092 33.478 Z" fill="#d0d4da" stroke="none" stroke-width="0.0" opacity="0.3"/>
    </g>
    <g id="HairFront_3Q_L_Y45_P45">
      <path d="M 700.000 266.228 C 710.000 130.061 713.333 117.394 690.000 85.728 C 666.667 54.061 680.000 69.894 650.000 57.228 C 620.000 44.561 633.333 47.728 600.000 47.728 C 566.667 47.728 580.000 55.644 550.000 57.228 C 520.000 58.811 540.000 54.061 510.000 52.478 C 480.000 50.894 478.000 57.544 460.000 52.478 C 442.000 47.411 461.333 43.611 456.000 37.278 C 450.667 30.944 451.733 33.478 444.000 33.478 C 436.267 33.478 440.800 29.361 432.800 37.278 C 424.800 45.194 440.933 47.411 420.000 57.228 C 399.067 67.044 400.000 57.228 370.000 66.728 C 340.000 76.228 353.333 66.728 330.000 85.728 C 306.667 104.728 320.000 95.228 300.000 123.728 C 280.000 152.228 286.667 139.561 270.000 171.228 C 253.333 202.894 260.000 187.061 250.000 218.728 C 240.000 250.394 246.667 234.561 240.000 266.228 L 230.000 313.728 C 300.000 269.394 300.000 266.228 340.000 256.728 C 380.000 247.228 360.000 247.228 400.000 247.228 C 440.000 247.228 420.000 250.394 460.000 256.728 C 500.000 263.061 476.667 269.394 520.000 266.228 C 563.333 263.061 546.667 256.728 590.000 247.228 C 633.333 237.728 616.667 234.561 650.000 237.728 C 683.333 240.894 673.333 247.228 690.000 256.728 Z" fill="none" stroke="#16181d" stroke-width="5.0" stroke-linecap="round" stroke-linejoin="round"/>
      <path d="M 671.790 253.067 C 680.590 133.240 683.524 122.094 662.990 94.227 C 642.457 66.360 654.190 80.294 627.790 69.147 C 601.390 58.000 613.124 60.787 583.790 60.787 C 554.457 60.787 566.190 67.754 539.790 69.147 C 513.390 70.540 530.990 66.360 504.590 64.967 C 478.190 63.574 476.430 69.426 460.590 64.967 C 444.750 60.508 461.764 57.164 457.070 51.591 C 452.377 46.018 453.316 48.247 446.510 48.247 C 439.705 48.247 443.694 44.624 436.654 51.591 C 429.614 58.558 443.812 60.508 425.390 69.147 C 406.969 77.786 407.790 69.147 381.390 77.507 C 354.990 85.867 366.724 77.507 346.190 94.227 C 325.657 110.947 337.390 102.587 319.790 127.667 C 302.190 152.747 308.057 141.600 293.390 169.467 C 278.724 197.334 284.590 183.400 275.790 211.267 C 266.990 239.134 272.857 225.200 266.990 253.067 C 261.124 280.934 249.566 292.080 258.190 294.867 C 269.924 297.654 269.924 278.147 302.190 261.427 C 334.457 244.707 319.790 253.067 354.990 244.707 C 390.190 236.347 372.590 236.347 407.790 236.347 C 442.990 236.347 425.390 239.134 460.590 244.707 C 495.790 250.280 475.257 255.854 513.390 253.067 C 551.524 250.280 536.857 244.707 574.990 236.347 C 613.124 227.987 598.457 225.200 627.790 227.987 C 657.124 230.774 648.324 236.347 662.990 244.707" fill="none" stroke="#16181d" stroke-width="3.0" stroke-linecap="round" stroke-linejoin="round"/>
      <path d="M 477.908 33.478 C 564.066 33.478 633.908 54.430 633.908 80.278 C 633.908 106.125 564.066 127.078 477.908 127.078 C 391.749 127.078 321.908 106.125 321.908 80.278 C 321.908 54.430 391.749 33.478 477.908 33.478 Z" fill="#d0d4da" stroke="none" stroke-width="0.0" opacity="0.3"/>
    </g>
    <g id="HairFront_3Q_Y45_Pn45">
      <path d="M 300.000 242.228 C 290.000 106.061 286.667 93.394 310.000 61.728 C 333.333 30.061 320.000 45.894 350.000 33.228 C 380.000 20.561 366.667 23.728 400.000 23.728 C 433.333 23.728 420.000 31.644 450.000 33.228 C 480.000 34.811 460.000 30.061 490.000 28.478 C 520.000 26.894 522.000 33.544 540.000 28.478 C 558.000 23.411 538.667 19.611 544.000 13.278 C 549.333 6.944 548.267 9.478 556.000 9.478 C 563.733 9.478 559.200 5.361 567.200 13.278 C 575.200 21.194 559.067 23.411 580.000 33.228 C 600.933 43.044 600.000 33.228 630.000 42.728 C 660.000 52.228 646.667 42.728 670.000 61.728 C 693.333 80.728 680.000 71.228 700.000 99.728 C 720.000 128.228 713.333 115.561 730.000 147.228 C 746.667 178.894 740.000 163.061 750.000 194.728 C 760.000 226.394 753.333 210.561 760.000 242.228 L 770.000 289.728 C 700.000 245.394 700.000 242.228 660.000 232.728 C 620.000 223.228 640.000 223.228 600.000 223.228 C 560.000 223.228 580.000 226.394 540.000 232.728 C 500.000 239.061 523.333 245.394 480.000 242.228 C 436.667 239.061 453.333 232.728 410.000 223.228 C 366.667 213.728 383.333 210.561 350.000 213.728 C 316.667 216.894 326.667 223.228 310.000 232.728 Z" fill="none" stroke="#16181d" stroke-width="5.0" stroke-linecap="round" stroke-linejoin="round"/>
      <path d="M 328.210 229.067 C 319.410 109.240 316.476 98.094 337.010 70.227 C 357.543 42.360 345.810 56.294 372.210 45.147 C 398.610 34.000 386.876 36.787 416.210 36.787 C 445.543 36.787 433.810 43.754 460.210 45.147 C 486.610 46.540 469.010 42.360 495.410 40.967 C 521.810 39.574 523.570 45.426 539.410 40.967 C 555.250 36.508 538.236 33.164 542.930 27.591 C 547.623 22.018 546.684 24.247 553.490 24.247 C 560.295 24.247 556.306 20.624 563.346 27.591 C 570.386 34.558 556.188 36.508 574.610 45.147 C 593.031 53.786 592.210 45.147 618.610 53.507 C 645.010 61.867 633.276 53.507 653.810 70.227 C 674.343 86.947 662.610 78.587 680.210 103.667 C 697.810 128.747 691.943 117.600 706.610 145.467 C 721.276 173.334 715.410 159.400 724.210 187.267 C 733.010 215.134 727.143 201.200 733.010 229.067 C 738.876 256.934 750.434 268.080 741.810 270.867 C 730.076 273.654 730.076 254.147 697.810 237.427 C 665.543 220.707 680.210 229.067 645.010 220.707 C 609.810 212.347 627.410 212.347 592.210 212.347 C 557.010 212.347 574.610 215.134 539.410 220.707 C 504.210 226.280 524.743 231.854 486.610 229.067 C 448.476 226.280 463.143 220.707 425.010 212.347 C 386.876 203.987 401.543 201.200 372.210 203.987 C 342.876 206.774 351.676 212.347 337.010 220.707" fill="none" stroke="#16181d" stroke-width="3.0" stroke-linecap="round" stroke-linejoin="round"/>
      <path d="M 519.813 9.478 C 619.227 9.478 699.813 33.654 699.813 63.478 C 699.813 93.302 619.227 117.478 519.813 117.478 C 420.399 117.478 339.813 93.302 339.813 63.478 C 339.813 33.654 420.399 9.478 519.813 9.478 Z" fill="#d0d4da" stroke="none" stroke-width="0.0" opacity="0.3"/>
    </g>
    <g id="HairFront_3Q_L_Y45_Pn45">
      <path d="M 700.000 242.228 C 710.000 106.061 713.333 93.394 690.000 61.728 C 666.667 30.061 680.000 45.894 650.000 33.228 C 620.000 20.561 633.333 23.728 600.000 23.728 C 566.667 23.728 580.000 31.644 550.000 33.228 C 520.000 34.811 540.000 30.061 510.000 28.478 C 480.000 26.894 478.000 33.544 460.000 28.478 C 442.000 23.411 461.333 19.611 456.000 13.278 C 450.667 6.944 451.733 9.478 444.000 9.478 C 436.267 9.478 440.800 5.361 432.800 13.278 C 424.800 21.194 440.933 23.411 420.000 33.228 C 399.067 43.044 400.000 33.228 370.000 42.728 C 340.000 52.228 353.333 42.728 330.000 61.728 C 306.667 80.728 320.000 71.228 300.000 99.728 C 280.000 128.228 286.667 115.561 270.000 147.228 C 253.333 178.894 260.000 163.061 250.000 194.728 C 240.000 226.394 246.667 210.561 240.000 242.228 L 230.000 289.728 C 300.000 245.394 300.000 242.228 340.000 232.728 C 380.000 223.228 360.000 223.228 400.000 223.228 C 440.000 223.228 420.000 226.394 460.000 232.728 C 500.000 239.061 476.667 245.394 520.000 242.228 C 563.333 239.061 546.667 232.728 590.000 223.228 C 633.333 213.728 616.667 210.561 650.000 213.728 C 683.333 216.894 673.333 223.228 690.000 232.728 Z" fill="none" stroke="#16181d" stroke-width="5.0" stroke-linecap="round" stroke-linejoin="round"/>
      <path d="M 671.790 229.067 C 680.590 109.240 683.524 98.094 662.990 70.227 C 642.457 42.360 654.190 56.294 627.790 45.147 C 601.390 34.000 613.124 36.787 583.790 36.787 C 554.457 36.787 566.190 43.754 539.790 45.147 C 513.390 46.540 530.990 42.360 504.590 40.967 C 478.190 39.574 476.430 45.426 460.590 40.967 C 444.750 36.508 461.764 33.164 457.070 27.591 C 452.377 22.018 453.316 24.247 446.510 24.247 C 439.705 24.247 443.694 20.624 436.654 27.591 C 429.614 34.558 443.812 36.508 425.390 45.147 C 406.969 53.786 407.790 45.147 381.390 53.507 C 354.990 61.867 366.724 53.507 346.190 70.227 C 325.657 86.947 337.390 78.587 319.790 103.667 C 302.190 128.747 308.057 117.600 293.390 145.467 C 278.724 173.334 284.590 159.400 275.790 187.267 C 266.990 215.134 272.857 201.200 266.990 229.067 C 261.124 256.934 249.566 268.080 258.190 270.867 C 269.924 273.654 269.924 254.147 302.190 237.427 C 334.457 220.707 319.790 229.067 354.990 220.707 C 390.190 212.347 372.590 212.347 407.790 212.347 C 442.990 212.347 425.390 215.134 460.590 220.707 C 495.790 226.280 475.257 231.854 513.390 229.067 C 551.524 226.280 536.857 220.707 574.990 212.347 C 613.124 203.987 598.457 201.200 627.790 203.987 C 657.124 206.774 648.324 212.347 662.990 220.707" fill="none" stroke="#16181d" stroke-width="3.0" stroke-linecap="round" stroke-linejoin="round"/>
      <path d="M 480.187 9.478 C 579.601 9.478 660.187 33.654 660.187 63.478 C 660.187 93.302 579.601 117.478 480.187 117.478 C 380.773 117.478 300.187 93.302 300.187 63.478 C 300.187 33.654 380.773 9.478 480.187 9.478 Z" fill="#d0d4da" stroke="none" stroke-width="0.0" opacity="0.3"/>
    </g>
    <g id="HairFront_Profile_Y90_P00">
      <path d="M 400.000 280.000 C 386.667 140.000 380.000 133.333 400.000 100.000 C 420.000 66.667 410.000 80.000 440.000 60.000 C 470.000 40.000 456.667 46.667 490.000 40.000 C 523.333 33.333 510.000 36.667 540.000 40.000 C 570.000 43.333 553.333 40.000 580.000 50.000 C 606.667 60.000 605.333 67.000 620.000 70.000 C 634.667 73.000 618.667 64.000 624.000 59.000 C 629.333 54.000 628.267 55.000 636.000 55.000 C 643.733 55.000 639.200 44.000 647.200 59.000 C 655.200 74.000 645.733 73.000 660.000 100.000 C 674.267 127.000 673.333 110.000 690.000 140.000 C 706.667 170.000 696.667 156.667 710.000 190.000 C 723.333 223.333 720.000 206.667 730.000 240.000 C 740.000 273.333 736.667 256.667 740.000 290.000 C 743.333 323.333 746.667 310.000 740.000 340.000 C 733.333 370.000 736.667 356.667 720.000 380.000 C 703.333 403.333 720.000 416.667 690.000 410.000 C 660.000 403.333 670.000 386.667 630.000 360.000 C 590.000 333.333 606.667 346.667 570.000 330.000 C 533.333 313.333 553.333 320.000 520.000 310.000 C 486.667 300.000 503.333 303.333 470.000 300.000 C 436.667 296.667 446.667 293.333 420.000 300.000 C 393.333 306.667 403.333 306.667 390.000 320.000 L 380.000 340.000 L 390.000 310.000 Z" fill="none" stroke="#16181d" stroke-width="5.0" stroke-linecap="round" stroke-linejoin="round"/>
      <path d="M 419.588 271.436 C 407.854 148.236 401.988 142.369 419.588 113.036 C 437.188 83.702 428.388 95.436 454.788 77.836 C 481.188 60.236 469.454 66.102 498.788 60.236 C 528.121 54.369 516.388 57.302 542.788 60.236 C 569.188 63.169 554.521 60.236 577.988 69.036 C 601.454 77.836 600.281 83.996 613.188 86.636 C 626.094 89.276 612.014 81.356 616.708 76.956 C 621.401 72.556 620.462 73.436 627.268 73.436 C 634.073 73.436 630.084 63.756 637.124 76.956 C 644.164 90.156 635.833 89.276 648.388 113.036 C 660.942 136.796 660.121 121.836 674.788 148.236 C 689.454 174.636 680.654 162.902 692.388 192.236 C 704.121 221.569 701.188 206.902 709.988 236.236 C 718.788 265.569 715.854 250.902 718.788 280.236 C 721.721 309.569 725.124 303.702 718.788 324.236 C 686.521 344.769 671.854 344.769 621.988 341.836 C 572.121 338.902 601.454 330.102 569.188 315.436 C 536.921 300.769 554.521 306.636 525.188 297.836 C 495.854 289.036 510.521 291.969 481.188 289.036 C 451.854 286.102 460.654 283.169 437.188 289.036 C 413.721 294.902 422.521 294.902 410.788 306.636 C 399.054 318.369 401.988 327.169 401.988 324.236 C 401.988 321.302 404.921 315.436 410.788 297.836" fill="none" stroke="#16181d" stroke-width="3.0" stroke-linecap="round" stroke-linejoin="round"/>
      <path d="M 575.200 40.000 C 639.267 40.000 691.200 55.580 691.200 74.800 C 691.200 94.020 639.267 109.600 575.200 109.600 C 511.133 109.600 459.200 94.020 459.200 74.800 C 459.200 55.580 511.133 40.000 575.200 40.000 Z" fill="#d0d4da" stroke="none" stroke-width="0.0" opacity="0.3"/>
    </g>
    <g id="HairFront_Profile_L_Y90_P00">
      <path d="M 700.000 260.000 C 710.000 116.667 713.333 103.333 690.000 70.000 C 666.667 36.667 680.000 53.333 650.000 40.000 C 620.000 26.667 633.333 30.000 600.000 30.000 C 566.667 30.000 580.000 38.333 550.000 40.000 C 520.000 41.667 540.000 36.667 510.000 35.000 C 480.000 33.333 478.000 40.333 460.000 35.000 C 442.000 29.667 461.333 25.667 456.000 19.000 C 450.667 12.333 451.733 15.000 444.000 15.000 C 436.267 15.000 440.800 10.667 432.800 19.000 C 424.800 27.333 440.933 29.667 420.000 40.000 C 399.067 50.333 400.000 40.000 370.000 50.000 C 340.000 60.000 353.333 50.000 330.000 70.000 C 306.667 90.000 320.000 80.000 300.000 110.000 C 280.000 140.000 286.667 126.667 270.000 160.000 C 253.333 193.333 260.000 176.667 250.000 210.000 C 240.000 243.333 246.667 226.667 240.000 260.000 L 230.000 310.000 C 300.000 263.333 300.000 260.000 340.000 250.000 C 380.000 240.000 360.000 240.000 400.000 240.000 C 440.000 240.000 420.000 243.333 460.000 250.000 C 500.000 256.667 476.667 263.333 520.000 260.000 C 563.333 256.667 546.667 250.000 590.000 240.000 C 633.333 230.000 616.667 226.667 650.000 230.000 C 683.333 233.333 673.333 240.000 690.000 250.000 Z" fill="none" stroke="#16181d" stroke-width="5.0" stroke-linecap="round" stroke-linejoin="round"/>
      <path d="M 671.790 246.147 C 680.590 120.013 683.524 108.280 662.990 78.947 C 642.457 49.613 654.190 64.280 627.790 52.547 C 601.390 40.813 613.124 43.747 583.790 43.747 C 554.457 43.747 566.190 51.080 539.790 52.547 C 513.390 54.013 530.990 49.613 504.590 48.147 C 478.190 46.680 476.430 52.840 460.590 48.147 C 444.750 43.453 461.764 39.933 457.070 34.067 C 452.377 28.200 453.316 30.547 446.510 30.547 C 439.705 30.547 443.694 26.733 436.654 34.067 C 429.614 41.400 443.812 43.453 425.390 52.547 C 406.969 61.640 407.790 52.547 381.390 61.347 C 354.990 70.147 366.724 61.347 346.190 78.947 C 325.657 96.547 337.390 87.747 319.790 114.147 C 302.190 140.547 308.057 128.813 293.390 158.147 C 278.724 187.480 284.590 172.813 275.790 202.147 C 266.990 231.480 272.857 216.813 266.990 246.147 C 261.124 275.480 249.566 287.213 258.190 290.147 C 269.924 293.080 269.924 272.547 302.190 254.947 C 334.457 237.347 319.790 246.147 354.990 237.347 C 390.190 228.547 372.590 228.547 407.790 228.547 C 442.990 228.547 425.390 231.480 460.590 237.347 C 495.790 243.213 475.257 249.080 513.390 246.147 C 551.524 243.213 536.857 237.347 574.990 228.547 C 613.124 219.747 598.457 216.813 627.790 219.747 C 657.124 222.680 648.324 228.547 662.990 237.347" fill="none" stroke="#16181d" stroke-width="3.0" stroke-linecap="round" stroke-linejoin="round"/>
      <path d="M 495.200 15.000 C 587.986 15.000 663.200 37.564 663.200 65.400 C 663.200 93.236 587.986 115.800 495.200 115.800 C 402.414 115.800 327.200 93.236 327.200 65.400 C 327.200 37.564 402.414 15.000 495.200 15.000 Z" fill="#d0d4da" stroke="none" stroke-width="0.0" opacity="0.3"/>
    </g>
    <g id="HairFront_Profile_Y90_P45">
      <path d="M 400.000 288.431 C 386.667 155.431 380.000 149.098 400.000 117.431 C 420.000 85.765 410.000 98.431 440.000 79.431 C 470.000 60.431 456.667 66.765 490.000 60.431 C 523.333 54.098 510.000 57.265 540.000 60.431 C 570.000 63.598 553.333 60.431 580.000 69.931 C 606.667 79.431 605.333 86.081 620.000 88.931 C 634.667 91.781 618.667 83.231 624.000 78.481 C 629.333 73.731 628.267 74.681 636.000 74.681 C 643.733 74.681 639.200 64.231 647.200 78.481 C 655.200 92.731 645.733 91.781 660.000 117.431 C 674.267 143.081 673.333 126.931 690.000 155.431 C 706.667 183.931 696.667 171.265 710.000 202.931 C 723.333 234.598 720.000 218.765 730.000 250.431 C 740.000 282.098 736.667 266.265 740.000 297.931 C 743.333 329.598 746.667 316.931 740.000 345.431 C 733.333 373.931 736.667 361.265 720.000 383.431 C 703.333 405.598 720.000 418.265 690.000 411.931 C 660.000 405.598 670.000 389.765 630.000 364.431 C 590.000 339.098 606.667 351.765 570.000 335.931 C 533.333 320.098 553.333 326.431 520.000 316.931 C 486.667 307.431 503.333 310.598 470.000 307.431 C 436.667 304.265 446.667 301.098 420.000 307.431 C 393.333 313.765 403.333 313.765 390.000 326.431 L 380.000 345.431 L 390.000 316.931 Z" fill="none" stroke="#16181d" stroke-width="5.0" stroke-linecap="round" stroke-linejoin="round"/>
      <path d="M 419.588 280.295 C 407.854 163.255 401.988 157.682 419.588 129.815 C 437.188 101.949 428.388 113.095 454.788 96.375 C 481.188 79.655 469.454 85.229 498.788 79.655 C 528.121 74.082 516.388 76.869 542.788 79.655 C 569.188 82.442 554.521 79.655 577.988 88.015 C 601.454 96.375 600.281 102.227 613.188 104.735 C 626.094 107.243 612.014 99.719 616.708 95.539 C 621.401 91.359 620.462 92.195 627.268 92.195 C 634.073 92.195 630.084 82.999 637.124 95.539 C 644.164 108.079 635.833 107.243 648.388 129.815 C 660.942 152.387 660.121 138.175 674.788 163.255 C 689.454 188.335 680.654 177.189 692.388 205.055 C 704.121 232.922 701.188 218.989 709.988 246.855 C 718.788 274.722 715.854 260.789 718.788 288.655 C 721.721 316.522 725.124 310.949 718.788 330.455 C 686.521 349.962 671.854 349.962 621.988 347.175 C 572.121 344.389 601.454 336.029 569.188 322.095 C 536.921 308.162 554.521 313.735 525.188 305.375 C 495.854 297.015 510.521 299.802 481.188 297.015 C 451.854 294.229 460.654 291.442 437.188 297.015 C 413.721 302.589 422.521 302.589 410.788 313.735 C 399.054 324.882 401.988 333.242 401.988 330.455 C 401.988 327.669 404.921 322.095 410.788 305.375" fill="none" stroke="#16181d" stroke-width="3.0" stroke-linecap="round" stroke-linejoin="round"/>
      <path d="M 563.720 60.431 C 621.159 60.431 667.720 74.400 667.720 91.631 C 667.720 108.863 621.159 122.831 563.720 122.831 C 506.281 122.831 459.720 108.863 459.720 91.631 C 459.720 74.400 506.281 60.431 563.720 60.431 Z" fill="#d0d4da" stroke="none" stroke-width="0.0" opacity="0.3"/>
    </g>
    <g id="HairFront_Profile_L_Y90_P45">
      <path d="M 700.000 266.228 C 710.000 130.061 713.333 117.394 690.000 85.728 C 666.667 54.061 680.000 69.894 650.000 57.228 C 620.000 44.561 633.333 47.728 600.000 47.728 C 566.667 47.728 580.000 55.644 550.000 57.228 C 520.000 58.811 540.000 54.061 510.000 52.478 C 480.000 50.894 478.000 57.544 460.000 52.478 C 442.000 47.411 461.333 43.611 456.000 37.278 C 450.667 30.944 451.733 33.478 444.000 33.478 C 436.267 33.478 440.800 29.361 432.800 37.278 C 424.800 45.194 440.933 47.411 420.000 57.228 C 399.067 67.044 400.000 57.228 370.000 66.728 C 340.000 76.228 353.333 66.728 330.000 85.728 C 306.667 104.728 320.000 95.228 300.000 123.728 C 280.000 152.228 286.667 139.561 270.000 171.228 C 253.333 202.894 260.000 187.061 250.000 218.728 C 240.000 250.394 246.667 234.561 240.000 266.228 L 230.000 313.728 C 300.000 269.394 300.000 266.228 340.000 256.728 C 380.000 247.228 360.000 247.228 400.000 247.228 C 440.000 247.228 420.000 250.394 460.000 256.728 C 500.000 263.061 476.667 269.394 520.000 266.228 C 563.333 263.061 546.667 256.728 590.000 247.228 C 633.333 237.728 616.667 234.561 650.000 237.728 C 683.333 240.894 673.333 247.228 690.000 256.728 Z" fill="none" stroke="#16181d" stroke-width="5.0" stroke-linecap="round" stroke-linejoin="round"/>
      <path d="M 671.790 253.067 C 680.590 133.240 683.524 122.094 662.990 94.227 C 642.457 66.360 654.190 80.294 627.790 69.147 C 601.390 58.000 613.124 60.787 583.790 60.787 C 554.457 60.787 566.190 67.754 539.790 69.147 C 513.390 70.540 530.990 66.360 504.590 64.967 C 478.190 63.574 476.430 69.426 460.590 64.967 C 444.750 60.508 461.764 57.164 457.070 51.591 C 452.377 46.018 453.316 48.247 446.510 48.247 C 439.705 48.247 443.694 44.624 436.654 51.591 C 429.614 58.558 443.812 60.508 425.390 69.147 C 406.969 77.786 407.790 69.147 381.390 77.507 C 354.990 85.867 366.724 77.507 346.190 94.227 C 325.657 110.947 337.390 102.587 319.790 127.667 C 302.190 152.747 308.057 141.600 293.390 169.467 C 278.724 197.334 284.590 183.400 275.790 211.267 C 266.990 239.134 272.857 225.200 266.990 253.067 C 261.124 280.934 249.566 292.080 258.190 294.867 C 269.924 297.654 269.924 278.147 302.190 261.427 C 334.457 244.707 319.790 253.067 354.990 244.707 C 390.190 236.347 372.590 236.347 407.790 236.347 C 442.990 236.347 425.390 239.134 460.590 244.707 C 495.790 250.280 475.257 255.854 513.390 253.067 C 551.524 250.280 536.857 244.707 574.990 236.347 C 613.124 227.987 598.457 225.200 627.790 227.987 C 657.124 230.774 648.324 236.347 662.990 244.707" fill="none" stroke="#16181d" stroke-width="3.0" stroke-linecap="round" stroke-linejoin="round"/>
      <path d="M 477.908 33.478 C 564.066 33.478 633.908 54.430 633.908 80.278 C 633.908 106.125 564.066 127.078 477.908 127.078 C 391.749 127.078 321.908 106.125 321.908 80.278 C 321.908 54.430 391.749 33.478 477.908 33.478 Z" fill="#d0d4da" stroke="none" stroke-width="0.0" opacity="0.3"/>
    </g>
    <g id="HairFront_Profile_Y90_Pn45">
      <path d="M 400.000 264.431 C 386.667 131.431 380.000 125.098 400.000 93.431 C 420.000 61.765 410.000 74.431 440.000 55.431 C 470.000 36.431 456.667 42.765 490.000 36.431 C 523.333 30.098 510.000 33.265 540.000 36.431 C 570.000 39.598 553.333 36.431 580.000 45.931 C 606.667 55.431 605.333 62.081 620.000 64.931 C 634.667 67.781 618.667 59.231 624.000 54.481 C 629.333 49.731 628.267 50.681 636.000 50.681 C 643.733 50.681 639.200 40.231 647.200 54.481 C 655.200 68.731 645.733 67.781 660.000 93.431 C 674.267 119.081 673.333 102.931 690.000 131.431 C 706.667 159.931 696.667 147.265 710.000 178.931 C 723.333 210.598 720.000 194.765 730.000 226.431 C 740.000 258.098 736.667 242.265 740.000 273.931 C 743.333 305.598 746.667 292.931 740.000 321.431 C 733.333 349.931 736.667 337.265 720.000 359.431 C 703.333 381.598 720.000 394.265 690.000 387.931 C 660.000 381.598 670.000 365.765 630.000 340.431 C 590.000 315.098 606.667 327.765 570.000 311.931 C 533.333 296.098 553.333 302.431 520.000 292.931 C 486.667 283.431 503.333 286.598 470.000 283.431 C 436.667 280.265 446.667 277.098 420.000 283.431 C 393.333 289.765 403.333 289.765 390.000 302.431 L 380.000 321.431 L 390.000 292.931 Z" fill="none" stroke="#16181d" stroke-width="5.0" stroke-linecap="round" stroke-linejoin="round"/>
      <path d="M 419.588 256.295 C 407.854 139.255 401.988 133.682 419.588 105.815 C 437.188 77.949 428.388 89.095 454.788 72.375 C 481.188 55.655 469.454 61.229 498.788 55.655 C 528.121 50.082 516.388 52.869 542.788 55.655 C 569.188 58.442 554.521 55.655 577.988 64.015 C 601.454 72.375 600.281 78.227 613.188 80.735 C 626.094 83.243 612.014 75.719 616.708 71.539 C 621.401 67.359 620.462 68.195 627.268 68.195 C 634.073 68.195 630.084 58.999 637.124 71.539 C 644.164 84.079 635.833 83.243 648.388 105.815 C 660.942 128.387 660.121 114.175 674.788 139.255 C 689.454 164.335 680.654 153.189 692.388 181.055 C 704.121 208.922 701.188 194.989 709.988 222.855 C 718.788 250.722 715.854 236.789 718.788 264.655 C 721.721 292.522 724.654 281.375 718.788 306.455 C 712.921 331.535 725.124 334.322 701.188 339.895 C 668.921 345.469 665.988 337.109 621.988 323.175 C 577.988 309.242 601.454 312.029 569.188 298.095 C 536.921 284.162 554.521 289.735 525.188 281.375 C 495.854 273.015 510.521 275.802 481.188 273.015 C 451.854 270.229 460.654 267.442 437.188 273.015 C 413.721 278.589 422.521 278.589 410.788 289.735 C 399.054 300.882 401.988 309.242 401.988 306.455 C 401.988 303.669 404.921 298.095 410.788 281.375" fill="none" stroke="#16181d" stroke-width="3.0" stroke-linecap="round" stroke-linejoin="round"/>
      <path d="M 575.200 36.431 C 639.267 36.431 691.200 52.011 691.200 71.231 C 691.200 90.452 639.267 106.031 575.200 106.031 C 511.133 106.031 459.200 90.452 459.200 71.231 C 459.200 52.011 511.133 36.431 575.200 36.431 Z" fill="#d0d4da" stroke="none" stroke-width="0.0" opacity="0.3"/>
    </g>
    <g id="HairFront_Profile_L_Y90_Pn45">
      <path d="M 700.000 242.228 C 710.000 106.061 713.333 93.394 690.000 61.728 C 666.667 30.061 680.000 45.894 650.000 33.228 C 620.000 20.561 633.333 23.728 600.000 23.728 C 566.667 23.728 580.000 31.644 550.000 33.228 C 520.000 34.811 540.000 30.061 510.000 28.478 C 480.000 26.894 478.000 33.544 460.000 28.478 C 442.000 23.411 461.333 19.611 456.000 13.278 C 450.667 6.944 451.733 9.478 444.000 9.478 C 436.267 9.478 440.800 5.361 432.800 13.278 C 424.800 21.194 440.933 23.411 420.000 33.228 C 399.067 43.044 400.000 33.228 370.000 42.728 C 340.000 52.228 353.333 42.728 330.000 61.728 C 306.667 80.728 320.000 71.228 300.000 99.728 C 280.000 128.228 286.667 115.561 270.000 147.228 C 253.333 178.894 260.000 163.061 250.000 194.728 C 240.000 226.394 246.667 210.561 240.000 242.228 L 230.000 289.728 C 300.000 245.394 300.000 242.228 340.000 232.728 C 380.000 223.228 360.000 223.228 400.000 223.228 C 440.000 223.228 420.000 226.394 460.000 232.728 C 500.000 239.061 476.667 245.394 520.000 242.228 C 563.333 239.061 546.667 232.728 590.000 223.228 C 633.333 213.728 616.667 210.561 650.000 213.728 C 683.333 216.894 673.333 223.228 690.000 232.728 Z" fill="none" stroke="#16181d" stroke-width="5.0" stroke-linecap="round" stroke-linejoin="round"/>
      <path d="M 671.790 229.067 C 680.590 109.240 683.524 98.094 662.990 70.227 C 642.457 42.360 654.190 56.294 627.790 45.147 C 601.390 34.000 613.124 36.787 583.790 36.787 C 554.457 36.787 566.190 43.754 539.790 45.147 C 513.390 46.540 530.990 42.360 504.590 40.967 C 478.190 39.574 476.430 45.426 460.590 40.967 C 444.750 36.508 461.764 33.164 457.070 27.591 C 452.377 22.018 453.316 24.247 446.510 24.247 C 439.705 24.247 443.694 20.624 436.654 27.591 C 429.614 34.558 443.812 36.508 425.390 45.147 C 406.969 53.786 407.790 45.147 381.390 53.507 C 354.990 61.867 366.724 53.507 346.190 70.227 C 325.657 86.947 337.390 78.587 319.790 103.667 C 302.190 128.747 308.057 117.600 293.390 145.467 C 278.724 173.334 284.590 159.400 275.790 187.267 C 266.990 215.134 272.857 201.200 266.990 229.067 C 261.124 256.934 249.566 268.080 258.190 270.867 C 269.924 273.654 269.924 254.147 302.190 237.427 C 334.457 220.707 319.790 229.067 354.990 220.707 C 390.190 212.347 372.590 212.347 407.790 212.347 C 442.990 212.347 425.390 215.134 460.590 220.707 C 495.790 226.280 475.257 231.854 513.390 229.067 C 551.524 226.280 536.857 220.707 574.990 212.347 C 613.124 203.987 598.457 201.200 627.790 203.987 C 657.124 206.774 648.324 212.347 662.990 220.707" fill="none" stroke="#16181d" stroke-width="3.0" stroke-linecap="round" stroke-linejoin="round"/>
      <path d="M 480.187 9.478 C 579.601 9.478 660.187 33.654 660.187 63.478 C 660.187 93.302 579.601 117.478 480.187 117.478 C 380.773 117.478 300.187 93.302 300.187 63.478 C 300.187 33.654 380.773 9.478 480.187 9.478 Z" fill="#d0d4da" stroke="none" stroke-width="0.0" opacity="0.3"/>
    </g>
    <g id="HairFront_Back3Q_Y135_P00">
      <path d="M 300.000 340.000 C 310.000 190.000 303.333 176.667 330.000 130.000 C 356.667 83.333 343.333 103.333 380.000 80.000 C 416.667 56.667 400.000 66.667 440.000 60.000 C 480.000 53.333 463.333 60.000 500.000 60.000 C 536.667 60.000 516.667 56.667 550.000 60.000 C 583.333 63.333 581.667 70.333 600.000 70.000 C 618.333 69.667 598.333 64.000 605.000 59.000 C 611.667 54.000 610.333 55.000 620.000 55.000 C 629.667 55.000 624.000 47.333 634.000 59.000 C 644.000 70.667 628.000 66.333 650.000 90.000 C 672.000 113.667 670.000 100.000 700.000 130.000 C 730.000 160.000 716.667 143.333 740.000 180.000 C 763.333 216.667 753.333 200.000 770.000 240.000 C 786.667 280.000 783.333 260.000 790.000 300.000 C 796.667 340.000 796.667 323.333 790.000 360.000 C 783.333 396.667 790.000 383.333 770.000 410.000 C 750.000 436.667 763.333 446.667 730.000 440.000 C 696.667 433.333 713.333 416.667 670.000 390.000 C 626.667 363.333 643.333 376.667 600.000 360.000 C 556.667 343.333 583.333 346.667 540.000 340.000 C 496.667 333.333 513.333 336.667 470.000 340.000 C 426.667 343.333 450.000 343.333 410.000 350.000 C 370.000 356.667 383.333 353.333 350.000 360.000 C 316.667 366.667 330.000 370.000 310.000 370.000 C 290.000 370.000 293.333 370.000 290.000 360.000 Z" fill="none" stroke="#16181d" stroke-width="5.0" stroke-linecap="round" stroke-linejoin="round"/>
      <path d="M 329.951 326.813 C 338.751 194.813 332.884 183.080 356.351 142.013 C 379.818 100.947 368.084 118.547 400.351 98.013 C 432.618 77.480 417.951 86.280 453.151 80.413 C 488.351 74.547 473.684 80.413 505.951 80.413 C 538.218 80.413 520.618 77.480 549.951 80.413 C 579.284 83.347 577.818 89.507 593.951 89.213 C 610.084 88.920 592.484 83.933 598.351 79.533 C 604.218 75.133 603.044 76.013 611.551 76.013 C 620.058 76.013 615.071 69.267 623.871 79.533 C 632.671 89.800 618.591 85.987 637.951 106.813 C 657.311 127.640 655.551 115.613 681.951 142.013 C 708.351 168.413 696.618 153.747 717.151 186.013 C 737.684 218.280 728.884 203.613 743.551 238.813 C 758.218 274.013 755.284 256.413 761.151 291.613 C 767.018 326.813 769.951 326.813 761.151 344.413 C 705.418 353.213 667.284 350.280 593.951 344.413 C 520.618 338.547 579.284 332.680 541.151 326.813 C 503.018 320.947 517.684 323.880 479.551 326.813 C 441.418 329.747 461.951 329.747 426.751 335.613 C 391.551 341.480 409.151 341.480 373.951 344.413 C 338.751 347.347 335.818 350.280 321.151 344.413" fill="none" stroke="#16181d" stroke-width="3.0" stroke-linecap="round" stroke-linejoin="round"/>
      <path d="M 546.273 55.000 C 628.013 55.000 694.273 74.878 694.273 99.400 C 694.273 123.922 628.013 143.800 546.273 143.800 C 464.532 143.800 398.273 123.922 398.273 99.400 C 398.273 74.878 464.532 55.000 546.273 55.000 Z" fill="#d0d4da" stroke="none" stroke-width="0.0" opacity="0.3"/>
    </g>
    <g id="HairFront_Back3Q_L_Y135_P00">
      <path d="M 700.000 340.000 C 690.000 190.000 696.667 176.667 670.000 130.000 C 643.333 83.333 656.667 103.333 620.000 80.000 C 583.333 56.667 600.000 66.667 560.000 60.000 C 520.000 53.333 536.667 60.000 500.000 60.000 C 463.333 60.000 483.333 56.667 450.000 60.000 C 416.667 63.333 418.333 70.333 400.000 70.000 C 381.667 69.667 401.667 64.000 395.000 59.000 C 388.333 54.000 389.667 55.000 380.000 55.000 C 370.333 55.000 376.000 47.333 366.000 59.000 C 356.000 70.667 372.000 66.333 350.000 90.000 C 328.000 113.667 330.000 100.000 300.000 130.000 C 270.000 160.000 283.333 143.333 260.000 180.000 C 236.667 216.667 246.667 200.000 230.000 240.000 C 213.333 280.000 216.667 260.000 210.000 300.000 C 203.333 340.000 203.333 323.333 210.000 360.000 C 216.667 396.667 210.000 383.333 230.000 410.000 C 250.000 436.667 236.667 446.667 270.000 440.000 C 303.333 433.333 286.667 416.667 330.000 390.000 C 373.333 363.333 356.667 376.667 400.000 360.000 C 443.333 343.333 416.667 346.667 460.000 340.000 C 503.333 333.333 486.667 336.667 530.000 340.000 C 573.333 343.333 550.000 343.333 590.000 350.000 C 630.000 356.667 616.667 353.333 650.000 360.000 C 683.333 366.667 670.000 370.000 690.000 370.000 C 710.000 370.000 706.667 370.000 710.000 360.000 Z" fill="none" stroke="#16181d" stroke-width="5.0" stroke-linecap="round" stroke-linejoin="round"/>
      <path d="M 670.049 326.813 C 661.249 194.813 667.116 183.080 643.649 142.013 C 620.182 100.947 631.916 118.547 599.649 98.013 C 567.382 77.480 582.049 86.280 546.849 80.413 C 511.649 74.547 526.316 80.413 494.049 80.413 C 461.782 80.413 479.382 77.480 450.049 80.413 C 420.716 83.347 422.182 89.507 406.049 89.213 C 389.916 88.920 407.516 83.933 401.649 79.533 C 395.782 75.133 396.956 76.013 388.449 76.013 C 379.942 76.013 384.929 69.267 376.129 79.533 C 367.329 89.800 381.409 85.987 362.049 106.813 C 342.689 127.640 344.449 115.613 318.049 142.013 C 291.649 168.413 303.382 153.747 282.849 186.013 C 262.316 218.280 271.116 203.613 256.449 238.813 C 241.782 274.013 244.716 256.413 238.849 291.613 C 232.982 326.813 230.049 326.813 238.849 344.413 C 294.582 353.213 332.716 350.280 406.049 344.413 C 479.382 338.547 420.716 332.680 458.849 326.813 C 496.982 320.947 482.316 323.880 520.449 326.813 C 558.582 329.747 538.049 329.747 573.249 335.613 C 608.449 341.480 590.849 341.480 626.049 344.413 C 661.249 347.347 664.182 350.280 678.849 344.413" fill="none" stroke="#16181d" stroke-width="3.0" stroke-linecap="round" stroke-linejoin="round"/>
      <path d="M 453.727 55.000 C 535.468 55.000 601.727 74.878 601.727 99.400 C 601.727 123.922 535.468 143.800 453.727 143.800 C 371.987 143.800 305.727 123.922 305.727 99.400 C 305.727 74.878 371.987 55.000 453.727 55.000 Z" fill="#d0d4da" stroke="none" stroke-width="0.0" opacity="0.3"/>
    </g>
    <g id="HairFront_Back3Q_Y135_P45">
      <path d="M 300.000 346.506 C 310.000 204.006 303.333 191.339 330.000 147.006 C 356.667 102.672 343.333 121.672 380.000 99.506 C 416.667 77.339 400.000 86.839 440.000 80.506 C 480.000 74.172 463.333 80.506 500.000 80.506 C 536.667 80.506 516.667 77.339 550.000 80.506 C 583.333 83.672 581.667 90.322 600.000 90.006 C 618.333 89.689 598.333 84.306 605.000 79.556 C 611.667 74.806 610.333 75.756 620.000 75.756 C 629.667 75.756 624.000 68.472 634.000 79.556 C 644.000 90.639 628.000 86.522 650.000 109.006 C 672.000 131.489 670.000 118.506 700.000 147.006 C 730.000 175.506 716.667 159.672 740.000 194.506 C 763.333 229.339 753.333 213.506 770.000 251.506 C 786.667 289.506 783.333 270.506 790.000 308.506 C 796.667 346.506 796.667 330.672 790.000 365.506 C 783.333 400.339 790.000 387.672 770.000 413.006 C 750.000 438.339 763.333 447.839 730.000 441.506 C 696.667 435.172 713.333 419.339 670.000 394.006 C 626.667 368.672 643.333 381.339 600.000 365.506 C 556.667 349.672 583.333 352.839 540.000 346.506 C 496.667 340.172 513.333 343.339 470.000 346.506 C 426.667 349.672 450.000 349.672 410.000 356.006 C 370.000 362.339 383.333 359.172 350.000 365.506 C 316.667 371.839 330.000 375.006 310.000 375.006 C 290.000 375.006 293.333 375.006 290.000 365.506 Z" fill="none" stroke="#16181d" stroke-width="5.0" stroke-linecap="round" stroke-linejoin="round"/>
      <path d="M 329.951 333.978 C 338.751 208.578 332.884 197.432 356.351 158.418 C 379.818 119.405 368.084 136.125 400.351 116.618 C 432.618 97.112 417.951 105.472 453.151 99.898 C 488.351 94.325 473.684 99.898 505.951 99.898 C 538.218 99.898 520.618 97.112 549.951 99.898 C 579.284 102.685 577.818 108.537 593.951 108.258 C 610.084 107.980 592.484 103.242 598.351 99.062 C 604.218 94.882 603.044 95.718 611.551 95.718 C 620.058 95.718 615.071 89.309 623.871 99.062 C 632.671 108.816 618.591 105.193 637.951 124.978 C 657.311 144.764 655.551 133.338 681.951 158.418 C 708.351 183.498 696.618 169.565 717.151 200.218 C 737.684 230.872 728.884 216.938 743.551 250.378 C 758.218 283.818 769.775 272.672 761.151 300.538 C 693.684 328.405 635.018 322.832 541.151 333.978 C 447.284 345.125 517.684 331.192 479.551 333.978 C 441.418 336.765 476.618 342.338 426.751 342.338" fill="none" stroke="#16181d" stroke-width="3.0" stroke-linecap="round" stroke-linejoin="round"/>
      <path d="M 546.273 75.756 C 628.013 75.756 694.273 95.633 694.273 120.156 C 694.273 144.678 628.013 164.556 546.273 164.556 C 464.532 164.556 398.273 144.678 398.273 120.156 C 398.273 95.633 464.532 75.756 546.273 75.756 Z" fill="#d0d4da" stroke="none" stroke-width="0.0" opacity="0.3"/>
    </g>
    <g id="HairFront_Back3Q_L_Y135_P45">
      <path d="M 700.000 346.506 C 690.000 204.006 696.667 191.339 670.000 147.006 C 643.333 102.672 656.667 121.672 620.000 99.506 C 583.333 77.339 600.000 86.839 560.000 80.506 C 520.000 74.172 536.667 80.506 500.000 80.506 C 463.333 80.506 483.333 77.339 450.000 80.506 C 416.667 83.672 418.333 90.322 400.000 90.006 C 381.667 89.689 401.667 84.306 395.000 79.556 C 388.333 74.806 389.667 75.756 380.000 75.756 C 370.333 75.756 376.000 68.472 366.000 79.556 C 356.000 90.639 372.000 86.522 350.000 109.006 C 328.000 131.489 330.000 118.506 300.000 147.006 C 270.000 175.506 283.333 159.672 260.000 194.506 C 236.667 229.339 246.667 213.506 230.000 251.506 C 213.333 289.506 216.667 270.506 210.000 308.506 C 203.333 346.506 203.333 330.672 210.000 365.506 C 216.667 400.339 210.000 387.672 230.000 413.006 C 250.000 438.339 236.667 447.839 270.000 441.506 C 303.333 435.172 286.667 419.339 330.000 394.006 C 373.333 368.672 356.667 381.339 400.000 365.506 C 443.333 349.672 416.667 352.839 460.000 346.506 C 503.333 340.172 486.667 343.339 530.000 346.506 C 573.333 349.672 550.000 349.672 590.000 356.006 C 630.000 362.339 616.667 359.172 650.000 365.506 C 683.333 371.839 670.000 375.006 690.000 375.006 C 710.000 375.006 706.667 375.006 710.000 365.506 Z" fill="none" stroke="#16181d" stroke-width="5.0" stroke-linecap="round" stroke-linejoin="round"/>
      <path d="M 670.049 333.978 C 661.249 208.578 667.116 197.432 643.649 158.418 C 620.182 119.405 631.916 136.125 599.649 116.618 C 567.382 97.112 582.049 105.472 546.849 99.898 C 511.649 94.325 526.316 99.898 494.049 99.898 C 461.782 99.898 479.382 97.112 450.049 99.898 C 420.716 102.685 422.182 108.537 406.049 108.258 C 389.916 107.980 407.516 103.242 401.649 99.062 C 395.782 94.882 396.956 95.718 388.449 95.718 C 379.942 95.718 384.929 89.309 376.129 99.062 C 367.329 108.816 381.409 105.193 362.049 124.978 C 342.689 144.764 344.449 133.338 318.049 158.418 C 291.649 183.498 303.382 169.565 282.849 200.218 C 262.316 230.872 271.116 216.938 256.449 250.378 C 241.782 283.818 230.225 272.672 238.849 300.538 C 306.316 328.405 364.982 322.832 458.849 333.978 C 552.716 345.125 482.316 331.192 520.449 333.978 C 558.582 336.765 523.382 342.338 573.249 342.338" fill="none" stroke="#16181d" stroke-width="3.0" stroke-linecap="round" stroke-linejoin="round"/>
      <path d="M 453.727 75.756 C 535.468 75.756 601.727 95.633 601.727 120.156 C 601.727 144.678 535.468 164.556 453.727 164.556 C 371.987 164.556 305.727 144.678 305.727 120.156 C 305.727 95.633 371.987 75.756 453.727 75.756 Z" fill="#d0d4da" stroke="none" stroke-width="0.0" opacity="0.3"/>
    </g>
    <g id="HairFront_Back3Q_Y135_Pn45">
      <path d="M 300.000 322.506 C 310.000 180.006 303.333 167.339 330.000 123.006 C 356.667 78.672 343.333 97.672 380.000 75.506 C 416.667 53.339 400.000 62.839 440.000 56.506 C 480.000 50.172 463.333 56.506 500.000 56.506 C 536.667 56.506 516.667 53.339 550.000 56.506 C 583.333 59.672 581.667 66.322 600.000 66.006 C 618.333 65.689 598.333 60.306 605.000 55.556 C 611.667 50.806 610.333 51.756 620.000 51.756 C 629.667 51.756 624.000 44.472 634.000 55.556 C 644.000 66.639 628.000 62.522 650.000 85.006 C 672.000 107.489 670.000 94.506 700.000 123.006 C 730.000 151.506 716.667 135.672 740.000 170.506 C 763.333 205.339 753.333 189.506 770.000 227.506 C 786.667 265.506 783.333 246.506 790.000 284.506 C 796.667 322.506 796.667 306.672 790.000 341.506 C 783.333 376.339 790.000 363.672 770.000 389.006 C 750.000 414.339 763.333 423.839 730.000 417.506 C 696.667 411.172 713.333 395.339 670.000 370.006 C 626.667 344.672 643.333 357.339 600.000 341.506 C 556.667 325.672 583.333 328.839 540.000 322.506 C 496.667 316.172 513.333 319.339 470.000 322.506 C 426.667 325.672 450.000 325.672 410.000 332.006 C 370.000 338.339 383.333 335.172 350.000 341.506 C 316.667 347.839 330.000 351.006 310.000 351.006 C 290.000 351.006 293.333 351.006 290.000 341.506 Z" fill="none" stroke="#16181d" stroke-width="5.0" stroke-linecap="round" stroke-linejoin="round"/>
      <path d="M 329.951 309.978 C 338.751 184.578 332.884 173.432 356.351 134.418 C 379.818 95.405 368.084 112.125 400.351 92.618 C 432.618 73.112 417.951 81.472 453.151 75.898 C 488.351 70.325 473.684 75.898 505.951 75.898 C 538.218 75.898 520.618 73.112 549.951 75.898 C 579.284 78.685 577.818 84.537 593.951 84.258 C 610.084 83.980 592.484 79.242 598.351 75.062 C 604.218 70.882 603.044 71.718 611.551 71.718 C 620.058 71.718 615.071 65.309 623.871 75.062 C 632.671 84.816 618.591 81.193 637.951 100.978 C 657.311 120.764 655.551 109.338 681.951 134.418 C 708.351 159.498 696.618 145.565 717.151 176.218 C 737.684 206.872 728.884 192.938 743.551 226.378 C 758.218 259.818 755.284 243.098 761.151 276.538 C 767.018 309.978 769.951 309.978 761.151 326.698 C 705.418 343.418 667.284 332.272 593.951 326.698 C 520.618 321.125 579.284 315.552 541.151 309.978 C 503.018 304.405 517.684 307.192 479.551 309.978 C 441.418 312.765 461.951 312.765 426.751 318.338 C 391.551 323.912 403.284 321.125 373.951 326.698 C 344.618 332.272 356.351 335.058 338.751 335.058 C 321.151 335.058 324.084 335.058 321.151 326.698" fill="none" stroke="#16181d" stroke-width="3.0" stroke-linecap="round" stroke-linejoin="round"/>
      <path d="M 546.273 51.756 C 628.013 51.756 694.273 71.633 694.273 96.156 C 694.273 120.678 628.013 140.556 546.273 140.556 C 464.532 140.556 398.273 120.678 398.273 96.156 C 398.273 71.633 464.532 51.756 546.273 51.756 Z" fill="#d0d4da" stroke="none" stroke-width="0.0" opacity="0.3"/>
    </g>
    <g id="HairFront_Back3Q_L_Y135_Pn45">
      <path d="M 700.000 322.506 C 690.000 180.006 696.667 167.339 670.000 123.006 C 643.333 78.672 656.667 97.672 620.000 75.506 C 583.333 53.339 600.000 62.839 560.000 56.506 C 520.000 50.172 536.667 56.506 500.000 56.506 C 463.333 56.506 483.333 53.339 450.000 56.506 C 416.667 59.672 418.333 66.322 400.000 66.006 C 381.667 65.689 401.667 60.306 395.000 55.556 C 388.333 50.806 389.667 51.756 380.000 51.756 C 370.333 51.756 376.000 44.472 366.000 55.556 C 356.000 66.639 372.000 62.522 350.000 85.006 C 328.000 107.489 330.000 94.506 300.000 123.006 C 270.000 151.506 283.333 135.672 260.000 170.506 C 236.667 205.339 246.667 189.506 230.000 227.506 C 213.333 265.506 216.667 246.506 210.000 284.506 C 203.333 322.506 203.333 306.672 210.000 341.506 C 216.667 376.339 210.000 363.672 230.000 389.006 C 250.000 414.339 236.667 423.839 270.000 417.506 C 303.333 411.172 286.667 395.339 330.000 370.006 C 373.333 344.672 356.667 357.339 400.000 341.506 C 443.333 325.672 416.667 328.839 460.000 322.506 C 503.333 316.172 486.667 319.339 530.000 322.506 C 573.333 325.672 550.000 325.672 590.000 332.006 C 630.000 338.339 616.667 335.172 650.000 341.506 C 683.333 347.839 670.000 351.006 690.000 351.006 C 710.000 351.006 706.667 351.006 710.000 341.506 Z" fill="none" stroke="#16181d" stroke-width="5.0" stroke-linecap="round" stroke-linejoin="round"/>
      <path d="M 670.049 309.978 C 661.249 184.578 667.116 173.432 643.649 134.418 C 620.182 95.405 631.916 112.125 599.649 92.618 C 567.382 73.112 582.049 81.472 546.849 75.898 C 511.649 70.325 526.316 75.898 494.049 75.898 C 461.782 75.898 479.382 73.112 450.049 75.898 C 420.716 78.685 422.182 84.537 406.049 84.258 C 389.916 83.980 407.516 79.242 401.649 75.062 C 395.782 70.882 396.956 71.718 388.449 71.718 C 379.942 71.718 384.929 65.309 376.129 75.062 C 367.329 84.816 381.409 81.193 362.049 100.978 C 342.689 120.764 344.449 109.338 318.049 134.418 C 291.649 159.498 303.382 145.565 282.849 176.218 C 262.316 206.872 271.116 192.938 256.449 226.378 C 241.782 259.818 244.716 243.098 238.849 276.538 C 232.982 309.978 230.049 309.978 238.849 326.698 C 294.582 343.418 332.716 332.272 406.049 326.698 C 479.382 321.125 420.716 315.552 458.849 309.978 C 496.982 304.405 482.316 307.192 520.449 309.978 C 558.582 312.765 538.049 312.765 573.249 318.338 C 608.449 323.912 596.716 321.125 626.049 326.698 C 655.382 332.272 643.649 335.058 661.249 335.058 C 678.849 335.058 675.916 335.058 678.849 326.698" fill="none" stroke="#16181d" stroke-width="3.0" stroke-linecap="round" stroke-linejoin="round"/>
      <path d="M 453.727 51.756 C 535.468 51.756 601.727 71.633 601.727 96.156 C 601.727 120.678 535.468 140.556 453.727 140.556 C 371.987 140.556 305.727 120.678 305.727 96.156 C 305.727 71.633 371.987 51.756 453.727 51.756 Z" fill="#d0d4da" stroke="none" stroke-width="0.0" opacity="0.3"/>
    </g>
    <g id="HairFront_Back_Y180_P00">
      <path d="M 140.000 600.000 C 136.667 373.333 126.667 363.333 150.000 280.000 C 173.333 196.667 160.000 230.000 200.000 170.000 C 240.000 110.000 223.333 136.667 270.000 100.000 C 316.667 63.333 290.000 80.000 340.000 60.000 C 390.000 40.000 366.667 46.667 420.000 40.000 C 473.333 33.333 470.667 43.667 500.000 40.000 C 529.333 36.333 497.333 34.000 508.000 29.000 C 518.667 24.000 516.533 25.000 532.000 25.000 C 547.467 25.000 538.400 24.000 554.400 29.000 C 570.400 34.000 544.800 29.667 580.000 40.000 C 615.200 50.333 610.000 40.000 660.000 60.000 C 710.000 80.000 683.333 63.333 730.000 100.000 C 776.667 136.667 760.000 110.000 800.000 170.000 C 840.000 230.000 826.667 196.667 850.000 280.000 C 873.333 363.333 866.667 313.333 870.000 420.000 C 873.333 526.667 873.333 500.000 860.000 600.000 C 846.667 700.000 863.333 693.333 830.000 720.000 C 796.667 734.800 810.000 700.000 760.000 680.000 C 710.000 660.000 733.333 670.000 680.000 660.000 C 626.667 650.000 653.333 656.667 600.000 650.000 C 546.667 643.333 573.333 640.000 520.000 640.000 C 466.667 640.000 493.333 643.333 440.000 650.000 C 386.667 656.667 413.333 650.000 360.000 660.000 C 306.667 670.000 333.333 666.667 280.000 680.000 C 226.667 693.333 246.667 726.667 200.000 700.000 Z" fill="none" stroke="#16181d" stroke-width="5.0" stroke-linecap="round" stroke-linejoin="round"/>
      <path d="M 193.175 288.636 C 257.708 171.302 257.708 162.502 298.775 130.236 C 339.842 97.969 316.375 112.636 360.375 95.036 C 404.375 77.436 383.842 83.302 430.775 77.436 C 477.708 71.569 475.362 80.662 501.175 77.436 C 526.988 74.209 498.828 72.156 508.215 67.756 C 517.602 63.356 515.724 64.236 529.335 64.236 C 542.946 64.236 534.967 63.356 549.047 67.756 C 563.127 72.156 540.599 68.342 571.575 77.436 C 602.551 86.529 597.975 77.436 641.975 95.036 C 685.975 112.636 662.508 97.969 703.575 130.236 C 744.642 162.502 729.975 139.036 765.175 191.836 C 800.375 244.636 821.495 256.369 809.175 288.636" fill="none" stroke="#16181d" stroke-width="3.0" stroke-linecap="round" stroke-linejoin="round"/>
      <path d="M 509.440 25.000 C 611.063 25.000 693.440 49.713 693.440 80.200 C 693.440 110.687 611.063 135.400 509.440 135.400 C 407.817 135.400 325.440 110.687 325.440 80.200 C 325.440 49.713 407.817 25.000 509.440 25.000 Z" fill="#d0d4da" stroke="none" stroke-width="0.0" opacity="0.3"/>
    </g>
    <g id="HairFront_Back_Y180_P45">
      <path d="M 140.000 599.598 C 136.667 384.265 126.667 374.765 150.000 295.598 C 173.333 216.431 160.000 248.098 200.000 191.098 C 240.000 134.098 223.333 159.431 270.000 124.598 C 316.667 89.765 290.000 105.598 340.000 86.598 C 390.000 67.598 366.667 73.931 420.000 67.598 C 473.333 61.265 470.667 71.081 500.000 67.598 C 529.333 64.115 497.333 61.898 508.000 57.148 C 518.667 52.398 516.533 53.348 532.000 53.348 C 547.467 53.348 538.400 52.398 554.400 57.148 C 570.400 61.898 544.800 57.781 580.000 67.598 C 615.200 77.415 610.000 67.598 660.000 86.598 C 710.000 105.598 683.333 89.765 730.000 124.598 C 776.667 159.431 760.000 134.098 800.000 191.098 C 840.000 248.098 826.667 216.431 850.000 295.598 C 873.333 374.765 866.667 327.265 870.000 428.598 C 873.333 529.931 873.333 504.598 860.000 599.598 C 846.667 694.598 863.333 688.265 830.000 713.598 C 796.667 728.398 810.000 694.598 760.000 675.598 C 710.000 656.598 733.333 666.098 680.000 656.598 C 626.667 647.098 653.333 653.431 600.000 647.098 C 546.667 640.765 573.333 637.598 520.000 637.598 C 466.667 637.598 493.333 640.765 440.000 647.098 C 386.667 653.431 413.333 647.098 360.000 656.598 C 306.667 666.098 333.333 662.931 280.000 675.598 C 226.667 688.265 246.667 719.931 200.000 694.598 Z" fill="none" stroke="#16181d" stroke-width="5.0" stroke-linecap="round" stroke-linejoin="round"/>
      <path d="M 193.175 303.802 C 257.708 192.335 257.708 183.975 298.775 153.322 C 339.842 122.669 316.375 136.602 360.375 119.882 C 404.375 103.162 383.842 108.735 430.775 103.162 C 477.708 97.589 475.362 106.227 501.175 103.162 C 526.988 100.097 498.828 98.146 508.215 93.966 C 517.602 89.786 515.724 90.622 529.335 90.622 C 542.946 90.622 534.967 89.786 549.047 93.966 C 563.127 98.146 540.599 94.523 571.575 103.162 C 602.551 111.801 597.975 103.162 641.975 119.882 C 685.975 136.602 662.508 122.669 703.575 153.322 C 744.642 183.975 729.975 161.682 765.175 211.842 C 800.375 262.002 821.495 273.149 809.175 303.802" fill="none" stroke="#16181d" stroke-width="3.0" stroke-linecap="round" stroke-linejoin="round"/>
      <path d="M 509.440 53.348 C 611.063 53.348 693.440 78.061 693.440 108.548 C 693.440 139.035 611.063 163.748 509.440 163.748 C 407.817 163.748 325.440 139.035 325.440 108.548 C 325.440 78.061 407.817 53.348 509.440 53.348 Z" fill="#d0d4da" stroke="none" stroke-width="0.0" opacity="0.3"/>
    </g>
    <g id="HairFront_Back_Y180_Pn45">
      <path d="M 140.000 575.598 C 136.667 360.265 126.667 350.765 150.000 271.598 C 173.333 192.431 160.000 224.098 200.000 167.098 C 240.000 110.098 223.333 135.431 270.000 100.598 C 316.667 65.765 290.000 81.598 340.000 62.598 C 390.000 43.598 366.667 49.931 420.000 43.598 C 473.333 37.265 470.667 47.081 500.000 43.598 C 529.333 40.115 497.333 37.898 508.000 33.148 C 518.667 28.398 516.533 29.348 532.000 29.348 C 547.467 29.348 538.400 28.398 554.400 33.148 C 570.400 37.898 544.800 33.781 580.000 43.598 C 615.200 53.415 610.000 43.598 660.000 62.598 C 710.000 81.598 683.333 65.765 730.000 100.598 C 776.667 135.431 760.000 110.098 800.000 167.098 C 840.000 224.098 826.667 192.431 850.000 271.598 C 873.333 350.765 866.667 303.265 870.000 404.598 C 873.333 505.931 873.333 480.598 860.000 575.598 C 846.667 670.598 863.333 664.265 830.000 689.598 C 796.667 704.398 810.000 670.598 760.000 651.598 C 710.000 632.598 733.333 642.098 680.000 632.598 C 626.667 623.098 653.333 629.431 600.000 623.098 C 546.667 616.765 573.333 613.598 520.000 613.598 C 466.667 613.598 493.333 616.765 440.000 623.098 C 386.667 629.431 413.333 623.098 360.000 632.598 C 306.667 642.098 333.333 638.931 280.000 651.598 C 226.667 664.265 246.667 695.931 200.000 670.598 Z" fill="none" stroke="#16181d" stroke-width="5.0" stroke-linecap="round" stroke-linejoin="round"/>
      <path d="M 193.175 279.802 C 257.708 168.335 257.708 159.975 298.775 129.322 C 339.842 98.669 316.375 112.602 360.375 95.882 C 404.375 79.162 383.842 84.735 430.775 79.162 C 477.708 73.589 475.362 82.227 501.175 79.162 C 526.988 76.097 498.828 74.146 508.215 69.966 C 517.602 65.786 515.724 66.622 529.335 66.622 C 542.946 66.622 534.967 65.786 549.047 69.966 C 563.127 74.146 540.599 70.523 571.575 79.162 C 602.551 87.801 597.975 79.162 641.975 95.882 C 685.975 112.602 662.508 98.669 703.575 129.322 C 744.642 159.975 729.975 137.682 765.175 187.842 C 800.375 238.002 821.495 249.149 809.175 279.802" fill="none" stroke="#16181d" stroke-width="3.0" stroke-linecap="round" stroke-linejoin="round"/>
      <path d="M 509.440 29.348 C 611.063 29.348 693.440 54.061 693.440 84.548 C 693.440 115.035 611.063 139.748 509.440 139.748 C 407.817 139.748 325.440 115.035 325.440 84.548 C 325.440 54.061 407.817 29.348 509.440 29.348 Z" fill="#d0d4da" stroke="none" stroke-width="0.0" opacity="0.3"/>
    </g>
    <g id="HairFront_Top_Y00_P90">
      <path d="M 280.000 180.000 C 293.333 103.333 286.667 96.667 320.000 70.000 C 353.333 43.333 336.667 53.333 380.000 40.000 C 423.333 26.667 410.000 33.333 450.000 30.000 C 490.000 26.667 466.667 30.000 500.000 30.000 C 533.333 30.000 510.000 26.667 550.000 30.000 C 590.000 33.333 594.667 40.333 620.000 40.000 C 645.333 39.667 618.000 34.000 626.000 29.000 C 634.000 24.000 632.400 25.000 644.000 25.000 C 655.600 25.000 648.800 16.200 660.800 29.000 C 672.800 44.000 660.267 39.667 680.000 70.000 C 699.733 100.333 706.667 83.333 720.000 120.000 C 728.800 156.667 728.800 143.333 720.000 180.000 C 710.000 216.667 716.667 203.333 690.000 230.000 C 663.333 256.667 676.667 246.667 640.000 260.000 C 603.333 273.333 626.667 263.333 580.000 270.000 C 533.333 276.667 553.333 280.000 500.000 280.000 C 446.667 280.000 466.667 276.667 420.000 270.000 C 373.333 263.333 396.667 273.333 360.000 260.000 C 323.333 246.667 336.667 250.000 310.000 230.000 C 283.333 210.000 288.333 220.000 280.000 200.000 C 271.667 180.000 281.667 186.667 285.000 170.000 C 288.333 153.333 285.000 160.000 290.000 150.000 L 300.000 140.000 C 288.333 163.333 288.333 163.333 285.000 170.000 Z" fill="none" stroke="#16181d" stroke-width="5.0" stroke-linecap="round" stroke-linejoin="round"/>
      <path d="M 302.670 175.213 C 314.404 107.747 308.537 101.880 337.870 78.413 C 367.204 54.947 352.537 63.747 390.670 52.013 C 428.804 40.280 417.070 46.147 452.270 43.213 C 487.470 40.280 466.937 43.213 496.270 43.213 C 525.604 43.213 505.070 40.280 540.270 43.213 C 575.470 46.147 579.577 52.307 601.870 52.013 C 624.164 51.720 600.110 46.733 607.150 42.333 C 614.190 37.933 612.782 38.813 622.990 38.813 C 633.198 38.813 627.214 31.069 637.774 42.333 C 648.334 55.533 637.305 51.720 654.670 78.413 C 672.036 105.107 678.137 90.147 689.870 122.413 C 697.614 154.680 697.614 142.947 689.870 175.213 C 681.070 207.480 686.937 195.747 663.470 219.213 C 640.004 242.680 651.737 233.880 619.470 245.613 C 587.204 257.347 607.737 248.547 566.670 254.413 C 525.604 260.280 543.204 263.213 496.270 263.213 C 449.337 263.213 466.937 260.280 425.870 254.413 C 384.804 248.547 405.337 257.347 373.070 245.613 C 340.804 233.880 352.537 236.813 329.070 219.213 C 305.604 201.613 310.004 210.413 302.670 192.813 C 295.337 175.213 304.137 181.080 307.070 166.413 C 310.004 151.747 307.070 157.613 311.470 148.813 C 315.870 140.013 320.270 137.080 320.270 140.013 C 320.270 142.947 315.870 148.813 311.470 157.613 C 307.070 166.413 310.004 160.547 307.070 166.413" fill="none" stroke="#16181d" stroke-width="3.0" stroke-linecap="round" stroke-linejoin="round"/>
      <path d="M 517.754 25.000 C 614.959 25.000 693.754 48.639 693.754 77.800 C 693.754 106.961 614.959 130.600 517.754 130.600 C 420.549 130.600 341.754 106.961 341.754 77.800 C 341.754 48.639 420.549 25.000 517.754 25.000 Z" fill="#d0d4da" stroke="none" stroke-width="0.0" opacity="0.3"/>
    </g>
    <g id="HairFront_UnderPlane_Y00_Pn45">
      <path d="M 200.000 380.302 C 200.000 234.635 193.333 225.135 220.000 171.302 C 246.667 117.469 233.333 139.635 270.000 104.802 C 306.667 69.969 290.000 85.802 330.000 66.802 C 370.000 47.802 350.000 54.135 390.000 47.802 C 430.000 41.469 410.000 47.802 450.000 47.802 C 490.000 47.802 488.000 51.285 510.000 47.802 C 532.000 44.319 508.000 42.102 516.000 37.352 C 524.000 32.602 522.400 33.552 534.000 33.552 C 545.600 33.552 538.800 32.602 550.800 37.352 C 562.800 42.102 546.933 37.985 570.000 47.802 C 593.067 57.619 586.667 47.802 620.000 66.802 C 653.333 85.802 636.667 69.969 670.000 104.802 C 703.333 139.635 690.000 117.469 720.000 171.302 C 750.000 225.135 743.333 196.635 760.000 266.302 C 776.667 335.969 776.667 329.635 770.000 380.302 C 763.333 430.969 766.667 396.135 740.000 418.302 C 713.333 440.469 726.667 453.135 690.000 446.802 C 653.333 440.469 673.333 421.469 630.000 399.302 C 586.667 377.135 603.333 392.969 560.000 380.302 C 516.667 367.635 543.333 361.302 500.000 361.302 C 456.667 361.302 476.667 367.635 430.000 380.302 C 383.333 392.969 403.333 386.635 360.000 399.302 C 316.667 411.969 340.000 408.802 300.000 418.302 C 260.000 427.802 273.333 430.969 240.000 427.802 C 206.667 424.635 213.333 424.635 200.000 408.802 Z" fill="none" stroke="#16181d" stroke-width="5.0" stroke-linecap="round" stroke-linejoin="round"/>
      <path d="M 224.626 262.430 C 265.692 159.323 262.759 150.963 295.026 120.310 C 327.292 89.657 312.626 103.590 347.826 86.870 C 383.026 70.150 365.426 75.723 400.626 70.150 C 435.826 64.577 418.226 70.150 453.426 70.150 C 488.626 70.150 486.866 73.215 506.226 70.150 C 525.586 67.085 504.466 65.134 511.506 60.954 C 518.546 56.774 517.138 57.610 527.346 57.610 C 537.554 57.610 531.570 56.774 542.130 60.954 C 552.690 65.134 538.727 61.511 559.026 70.150 C 579.324 78.789 573.692 70.150 603.026 86.870 C 632.359 103.590 617.692 89.657 647.026 120.310 C 676.359 150.963 664.626 131.457 691.026 178.830 C 717.426 226.203 736.258 206.697 726.226 262.430 C 661.692 318.163 664.626 346.030 497.426 346.030" fill="none" stroke="#16181d" stroke-width="3.0" stroke-linecap="round" stroke-linejoin="round"/>
      <path d="M 491.891 33.552 C 580.259 33.552 651.891 55.041 651.891 81.552 C 651.891 108.062 580.259 129.552 491.891 129.552 C 403.523 129.552 331.891 108.062 331.891 81.552 C 331.891 55.041 403.523 33.552 491.891 33.552 Z" fill="#d0d4da" stroke="none" stroke-width="0.0" opacity="0.3"/>
    </g>
</svg>
